<svg xmlns="http://www.w3.org/2000/svg" xmlns:xlink="http://www.w3.org/1999/xlink" version="1.1" x="0px" y="0px" viewBox="0 0 100 125" enable-background="new 0 0 100 100" xml:space="preserve"><g><path d="M46.438,69.059v11.3c0,0.649,1,0.649,1,0v-11.3C47.438,68.39,46.438,68.39,46.438,69.059z"/><path d="M48.267,69.066v11.3c0,0.649,1,0.649,1,0v-11.3C49.267,68.397,48.267,68.397,48.267,69.066z"/><path d="M50.732,69.059v11.3c0,0.649,1,0.649,1,0v-11.3C51.732,68.39,50.732,68.39,50.732,69.059z"/><path d="M52.562,69.059v11.3c0,0.649,1,0.649,1,0v-11.3C53.562,68.39,52.562,68.39,52.562,69.059z"/><path d="M42.131,38.188c0.002-0.018,0.011-0.033,0.012-0.052l0.588-21.715c0.015-0.57-0.859-0.683-0.987-0.126l-0.93,4.042   c-0.02,0.086-0.017,0.176,0.01,0.26l0.729,2.362l-0.408,15.063c-2.532-0.377-5.196-0.442-5.773,0.135   c-1.155,1.155-1.315,7.091,1.155,8.406c2.47,1.315,9.728-4.68,9.601-6.798C46.092,39.181,44.271,38.582,42.131,38.188z    M38.627,40.52c-0.195-0.999,5.063-0.387,4.938,0.906C43.441,42.718,39.018,42.52,38.627,40.52z"/><path d="M78.018,33.103c-0.623-1.501-7.599-9.38-7.766-10.03c-0.351-1.379-0.37-6.283-0.348-8.056   c0.007-0.529-0.4-0.972-0.929-1.01c-0.524-0.027-0.993,0.342-1.063,0.868l-2.019,15.384c-0.465-1.194-0.85-2.132-0.98-2.428   c-1.271-2.867-1.458-6.313-1.595-8.83c-0.089-1.634-0.147-2.713-0.47-3.365C61.655,13.228,54.683,9.674,50,9.674   s-11.656,3.554-12.849,5.962c-0.323,0.652-0.382,1.732-0.471,3.366c-0.136,2.517-0.323,5.963-1.594,8.829   c-0.126,0.283-0.513,1.226-0.981,2.431l-2.02-15.387c-0.069-0.525-0.531-0.901-1.063-0.867c-0.528,0.038-0.935,0.481-0.928,1.01   c0.022,1.773,0.004,6.676-0.347,8.055c-0.167,0.651-7.143,8.53-7.765,10.032c-0.741,1.788,0.355,15.736,1.744,17.433   c5.304,6.483,9.598,16.897,14.415,30.541c0.144,0.407,0.527,0.667,0.942,0.667c0.007,0,0.013-0.001,0.021,0c0.552,0,1-0.447,1-1   c0-0.113-0.019-0.222-0.053-0.323l-3.422-26.552c0.223,0.123,2.662,1.444,2.863,1.709c0.936,1.587,2.216,12.494,2.167,16.944   l-0.4,0.589c-0.111,0.164-0.171,0.357-0.173,0.555c-0.034,4.597,0.007,12.495,0.667,13.747c0.498,0.94,2.265,2.313,2.795,2.712   c0.735,0.548,1.89-0.146,1.545-1.13c-0.302-0.862-0.451-2.556-0.516-4.65c2.704-1.533,6.141-1.533,8.846,0   c-0.064,2.094-0.213,3.788-0.515,4.65c-0.364,1.039,0.834,1.66,1.544,1.13c0.53-0.398,2.299-1.772,2.794-2.713   c0.659-1.251,0.7-9.149,0.666-13.746c-0.002-0.197-0.062-0.391-0.173-0.554l-0.397-0.586c-0.052-4.445,1.228-15.358,2.154-16.933   c0.211-0.279,2.65-1.602,2.875-1.725l-3.447,26.747c-0.065,0.508,0.263,0.982,0.761,1.101c0.077,0.019,0.155,0.027,0.232,0.027   c0.415,0,0.798-0.26,0.942-0.667c4.816-13.644,9.111-24.058,14.415-30.541C77.662,48.839,78.759,34.892,78.018,33.103z    M73.399,43.677l2.261,0.606c-0.137,1.138-0.284,2.183-0.433,3.029l-2.793-0.983C72.828,45.537,73.154,44.651,73.399,43.677z    M73.607,42.697c0.096-0.541,0.218-1.531,0.213-2.325l2.195,0.427c-0.071,0.828-0.152,1.666-0.241,2.479L73.607,42.697z    M68.68,24.404c0.582,1.007,6.996,8.274,7.486,9.455c0.218,0.642,0.146,3.133-0.068,5.938l-2.327-0.453   c-0.072-0.739-0.217-1.429-0.415-2.073l2.521-0.663c0.268-0.07,0.427-0.343,0.356-0.61c-0.069-0.267-0.348-0.426-0.61-0.356   l-2.61,0.686c-1.325-3.166-3.921-5.029-5.142-5.761L68.68,24.404z M71.757,41.637c-0.39,3.247-1.879,5.646-3.955,7.372   c2.196-9.561-0.404-14.739-1.191-16.865C67.725,32.75,72.47,35.702,71.757,41.637z M32.19,48.975   c-1.815-1.52-3.507-3.671-3.948-7.338c-0.72-6,4.032-8.902,5.149-9.497C32.105,35.613,30.18,40.151,32.19,48.975z M23.985,40.799   l2.195-0.427c-0.004,0.865,0.075,1.545,0.212,2.325l-2.164,0.581C24.139,42.464,24.057,41.626,23.985,40.799z M24.344,44.281   l2.257-0.605c0.245,0.975,0.571,1.86,0.964,2.653L24.78,47.31C24.63,46.46,24.481,45.417,24.344,44.281z M23.83,33.869   c0.494-1.192,6.907-8.458,7.489-9.465l0.809,6.163c-1.221,0.732-3.816,2.595-5.141,5.761l-2.61-0.686   c-0.264-0.07-0.54,0.089-0.61,0.356s0.089,0.541,0.356,0.61l2.522,0.663c-0.199,0.644-0.343,1.333-0.416,2.072l-2.327,0.453   C23.687,36.993,23.614,34.506,23.83,33.869z M25.296,49.301c-0.102-0.167-0.21-0.517-0.32-1l3.076-1.083   c2.021,3.364,5.096,4.932,6.409,5.473l2.486,19.296C33.219,62.221,29.593,54.55,25.296,49.301z M43.536,86.511   c-0.329-0.857-0.486-6.982-0.452-12.526l0.545-0.802c-0.035,2.446-0.159,10.783,0.073,13.55   C43.624,86.643,43.566,86.567,43.536,86.511z M56.477,86.479c-0.034,0.063-0.095,0.146-0.178,0.242   c0.2-2.397,0.101-11.513,0.072-13.537l0.543,0.8C56.948,79.527,56.791,85.652,56.477,86.479z M61.744,52.478   c-1.626,0.881-2.564,1.412-2.961,2.085c-1.117,1.896-2.059,10.078-2.35,15.155l-0.263-0.387c-0.604-0.889-1.827-0.263-1.827,0.562   c0,1.688,0.03,3.555,0.061,5.45c0.036,2.251,0.072,4.622,0.058,6.774c-2.813-1.234-6.11-1.235-8.924-0.001   c-0.015-2.151,0.022-4.522,0.058-6.773c0.03-1.896,0.06-3.762,0.06-5.45c0-1.043-1.323-1.301-1.827-0.563l-0.264,0.389   c-0.292-5.079-1.233-13.263-2.35-15.155c-0.396-0.674-1.335-1.205-2.962-2.087c-1.374-0.744-3.449-1.869-3.762-2.677   C34,48.529,32.792,42.277,33.7,37.712c0.44-2.212,2.783-8.101,3.214-9.071c1.42-3.202,1.618-6.86,1.763-9.532   c0.056-1.021,0.125-2.292,0.266-2.586c0.736-1.484,6.838-4.85,11.057-4.85s10.321,3.366,11.057,4.85   c0.142,0.294,0.211,1.565,0.266,2.586c0.146,2.671,0.344,6.33,1.764,9.531c0.433,0.977,2.78,6.89,3.215,9.071   c0.908,4.572-0.302,10.818-0.794,12.087C65.193,50.608,63.118,51.733,61.744,52.478z M63.053,71.986L65.54,52.69   c1.313-0.541,4.386-2.108,6.407-5.473l3.086,1.087c-0.106,0.468-0.21,0.804-0.308,0.965C70.411,54.544,66.782,62.219,63.053,71.986   z"/><path d="M64.627,38.157c-0.576-0.577-3.24-0.512-5.771-0.135l-0.409-15.06l0.73-2.366c0.026-0.084,0.029-0.174,0.01-0.26   l-0.932-4.042c-0.141-0.612-1.004-0.503-0.987,0.126l0.59,21.715c0.001,0.019,0.01,0.034,0.012,0.051   c-2.141,0.395-3.962,0.994-3.998,1.579c-0.127,2.118,7.131,8.113,9.602,6.798S65.781,39.313,64.627,38.157z M56.435,41.426   c-0.126-1.293,5.132-1.905,4.938-0.906C60.981,42.52,56.557,42.718,56.435,41.426z"/></g><text x="0" y="115" fill="#000000" font-size="5px" font-weight="bold" font-family="'Helvetica Neue', Helvetica, Arial-Unicode, Arial, Sans-serif">Created by habione 404</text><text x="0" y="120" fill="#000000" font-size="5px" font-weight="bold" font-family="'Helvetica Neue', Helvetica, Arial-Unicode, Arial, Sans-serif">from the Noun Project</text></svg>