<?xml version="1.0" encoding="UTF-8" standalone="no"?>
<!DOCTYPE svg PUBLIC "-//W3C//DTD SVG 1.1//EN" "http://www.w3.org/Graphics/SVG/1.1/DTD/svg11.dtd">
<svg width="100%" height="100%" viewBox="0 0 937 176" version="1.1" xmlns="http://www.w3.org/2000/svg" xmlns:xlink="http://www.w3.org/1999/xlink" xml:space="preserve" xmlns:serif="http://www.serif.com/" style="fill-rule:evenodd;clip-rule:evenodd;stroke-linejoin:round;stroke-miterlimit:2;">
    <g id="Artboard1" transform="matrix(1,0,0,1,-103.807,-698.77)">
        <rect x="103.807" y="698.77" width="936.867" height="175.246" style="fill:none;"/>
        <g>
            <g transform="matrix(0.991459,0,0,0.626506,-11.7836,410.091)">
                <g transform="matrix(126.077,0,0,199.519,139.053,668.523)">
                    <path d="M0.087,0.2L0.087,-0.789C0.087,-0.798 0.088,-0.805 0.091,-0.81C0.093,-0.814 0.1,-0.817 0.112,-0.819C0.124,-0.82 0.144,-0.821 0.173,-0.821L0.342,-0.821C0.342,-0.79 0.342,-0.768 0.341,-0.752C0.34,-0.738 0.337,-0.728 0.333,-0.723C0.328,-0.718 0.321,-0.716 0.31,-0.716L0.201,-0.716L0.201,0.095L0.342,0.095C0.342,0.13 0.342,0.154 0.341,0.169C0.34,0.184 0.337,0.192 0.332,0.195C0.327,0.198 0.32,0.2 0.31,0.2L0.087,0.2Z" style="fill-rule:nonzero;"/>
                </g>
                <g transform="matrix(126.077,0,0,199.519,183.18,668.523)">
                    <path d="M0.185,0.006C0.166,0.006 0.152,0 0.142,-0.011C0.132,-0.022 0.125,-0.036 0.122,-0.053C0.116,-0.08 0.109,-0.113 0.102,-0.154C0.094,-0.194 0.086,-0.237 0.077,-0.283C0.068,-0.33 0.06,-0.376 0.051,-0.422C0.043,-0.467 0.036,-0.509 0.029,-0.547L0.007,-0.671C0.005,-0.682 0.005,-0.69 0.007,-0.694C0.009,-0.698 0.017,-0.7 0.032,-0.7L0.126,-0.7L0.176,-0.374C0.181,-0.341 0.186,-0.307 0.191,-0.272C0.195,-0.237 0.199,-0.203 0.203,-0.172C0.207,-0.141 0.21,-0.114 0.213,-0.092C0.215,-0.114 0.218,-0.141 0.221,-0.172C0.224,-0.203 0.228,-0.237 0.233,-0.272C0.237,-0.307 0.241,-0.341 0.246,-0.374L0.289,-0.67C0.29,-0.681 0.293,-0.688 0.296,-0.693C0.299,-0.698 0.306,-0.7 0.316,-0.7L0.415,-0.7L0.283,-0C0.266,0.002 0.251,0.003 0.237,0.004C0.224,0.005 0.206,0.006 0.185,0.006Z" style="fill-rule:nonzero;"/>
                </g>
                <g transform="matrix(126.077,0,0,199.519,236.133,668.523)">
                    <path d="M0.03,-0L0.03,-0.672C0.03,-0.681 0.032,-0.688 0.035,-0.692C0.038,-0.696 0.048,-0.698 0.064,-0.699C0.079,-0.7 0.105,-0.7 0.142,-0.7L0.142,-0.105L0.283,-0.105L0.283,-0.02C0.283,-0.012 0.281,-0.007 0.278,-0.004C0.274,-0.001 0.269,-0 0.263,-0L0.03,-0Z" style="fill-rule:nonzero;"/>
                </g>
                <g transform="matrix(126.077,0,0,199.519,273.703,668.523)">
                    <path d="M0.073,0.002C0.066,0.002 0.055,0.002 0.042,0.001C0.029,0 0.015,-0.001 0.002,-0.002L0.169,-0.681C0.172,-0.695 0.187,-0.702 0.214,-0.702C0.223,-0.702 0.233,-0.702 0.243,-0.701C0.252,-0.7 0.26,-0.699 0.267,-0.698L0.434,-0.018C0.435,-0.011 0.433,-0.006 0.427,-0.003C0.421,0 0.407,0.002 0.384,0.002C0.377,0.002 0.368,0.002 0.357,0.001C0.346,0.001 0.334,0.001 0.319,-0L0.246,-0.353C0.243,-0.371 0.239,-0.391 0.236,-0.411C0.233,-0.433 0.23,-0.454 0.227,-0.477C0.224,-0.5 0.222,-0.521 0.22,-0.542C0.218,-0.521 0.216,-0.5 0.213,-0.477C0.21,-0.454 0.206,-0.433 0.203,-0.411C0.201,-0.391 0.197,-0.371 0.193,-0.353L0.124,-0.019C0.123,-0.012 0.119,-0.007 0.115,-0.004C0.11,0 0.096,0.002 0.073,0.002ZM0.116,-0.159L0.116,-0.26L0.342,-0.26L0.342,-0.159L0.116,-0.159Z" style="fill-rule:nonzero;"/>
                </g>
                <g transform="matrix(126.077,0,0,199.519,327.538,668.523)">
                    <path d="M0.147,0.01C0.102,0.01 0.069,0.003 0.048,-0.011C0.027,-0.024 0.016,-0.04 0.016,-0.057C0.016,-0.068 0.018,-0.082 0.022,-0.097C0.026,-0.112 0.032,-0.125 0.041,-0.138C0.052,-0.129 0.065,-0.121 0.082,-0.115C0.099,-0.108 0.116,-0.105 0.134,-0.105C0.161,-0.105 0.18,-0.112 0.191,-0.126C0.202,-0.14 0.207,-0.159 0.207,-0.182C0.207,-0.199 0.204,-0.216 0.198,-0.231C0.191,-0.246 0.179,-0.265 0.162,-0.288L0.071,-0.41C0.048,-0.441 0.033,-0.467 0.026,-0.49C0.019,-0.513 0.015,-0.535 0.015,-0.557C0.015,-0.602 0.03,-0.639 0.06,-0.668C0.09,-0.696 0.134,-0.71 0.193,-0.71C0.244,-0.71 0.279,-0.705 0.299,-0.695C0.319,-0.685 0.329,-0.671 0.329,-0.654C0.329,-0.645 0.327,-0.634 0.323,-0.624C0.319,-0.613 0.312,-0.602 0.303,-0.591C0.298,-0.595 0.287,-0.599 0.27,-0.604C0.253,-0.609 0.235,-0.611 0.216,-0.611C0.191,-0.611 0.172,-0.607 0.158,-0.599C0.144,-0.59 0.137,-0.577 0.137,-0.56C0.137,-0.545 0.14,-0.531 0.146,-0.518C0.151,-0.504 0.16,-0.489 0.173,-0.471L0.269,-0.348C0.293,-0.317 0.309,-0.29 0.317,-0.265C0.325,-0.24 0.329,-0.214 0.329,-0.185C0.329,-0.152 0.324,-0.12 0.314,-0.091C0.303,-0.061 0.285,-0.037 0.259,-0.018C0.233,0.001 0.196,0.01 0.147,0.01Z" style="fill-rule:nonzero;"/>
                </g>
                <g transform="matrix(126.077,0,0,199.519,370.909,668.523)">
                    <path d="M0.132,-0L0.132,-0.69L0.244,-0.69L0.244,-0.02C0.244,-0.013 0.242,-0.009 0.239,-0.006C0.236,-0.003 0.226,-0.002 0.211,-0.001C0.195,-0 0.169,-0 0.132,-0ZM0.01,-0.595L0.01,-0.68C0.01,-0.693 0.017,-0.7 0.03,-0.7L0.37,-0.7L0.37,-0.615C0.37,-0.607 0.369,-0.602 0.366,-0.599C0.363,-0.596 0.357,-0.595 0.35,-0.595L0.01,-0.595Z" style="fill-rule:nonzero;"/>
                </g>
                <g transform="matrix(126.077,0,0,199.519,418.818,668.523)">
                    <path d="M0.03,-0L0.03,-0.651C0.03,-0.668 0.032,-0.679 0.035,-0.686C0.038,-0.693 0.048,-0.697 0.064,-0.698C0.08,-0.699 0.107,-0.7 0.144,-0.7L0.144,-0.02C0.144,-0.013 0.142,-0.009 0.139,-0.006C0.136,-0.003 0.126,-0.002 0.111,-0.001C0.095,-0 0.068,-0 0.03,-0Z" style="fill-rule:nonzero;"/>
                </g>
                <g transform="matrix(126.077,0,0,199.519,440.755,668.523)">
                    <path d="M0.208,-0.167L0.161,-0.307C0.158,-0.315 0.155,-0.327 0.151,-0.344C0.146,-0.36 0.141,-0.378 0.136,-0.399C0.131,-0.42 0.125,-0.441 0.12,-0.462C0.115,-0.483 0.11,-0.502 0.106,-0.52L0.091,-0.58L0.135,-0.7L0.214,-0.454C0.219,-0.439 0.224,-0.425 0.227,-0.412C0.23,-0.399 0.233,-0.389 0.235,-0.38L0.241,-0.353C0.241,-0.353 0.241,-0.355 0.242,-0.36C0.243,-0.365 0.244,-0.372 0.246,-0.381C0.248,-0.39 0.251,-0.4 0.254,-0.412C0.257,-0.424 0.26,-0.437 0.265,-0.452L0.333,-0.68L0.385,-0.578C0.385,-0.578 0.384,-0.573 0.381,-0.562C0.378,-0.551 0.375,-0.537 0.371,-0.52C0.366,-0.502 0.361,-0.483 0.356,-0.462C0.351,-0.441 0.345,-0.42 0.34,-0.4C0.334,-0.379 0.329,-0.361 0.325,-0.344C0.32,-0.328 0.316,-0.316 0.313,-0.307L0.265,-0.174C0.264,-0.169 0.26,-0.167 0.254,-0.167L0.208,-0.167ZM0.03,-0L0.03,-0.68C0.03,-0.69 0.032,-0.696 0.036,-0.698C0.04,-0.699 0.045,-0.7 0.05,-0.7L0.135,-0.7L0.141,-0.51L0.109,-0.489C0.109,-0.489 0.11,-0.486 0.111,-0.478C0.112,-0.471 0.114,-0.462 0.116,-0.449C0.118,-0.436 0.12,-0.42 0.123,-0.402C0.125,-0.383 0.127,-0.363 0.13,-0.341C0.132,-0.319 0.134,-0.295 0.136,-0.27C0.137,-0.245 0.138,-0.218 0.138,-0.191L0.141,-0.02C0.141,-0.013 0.139,-0.009 0.135,-0.006C0.131,-0.003 0.121,-0.002 0.106,-0.001C0.09,-0 0.065,-0 0.03,-0ZM0.332,-0L0.337,-0.19C0.338,-0.217 0.339,-0.244 0.341,-0.269C0.342,-0.294 0.344,-0.317 0.346,-0.34C0.349,-0.362 0.351,-0.382 0.353,-0.401C0.355,-0.419 0.357,-0.435 0.359,-0.448C0.361,-0.461 0.363,-0.471 0.364,-0.478C0.365,-0.485 0.366,-0.489 0.366,-0.489L0.333,-0.512L0.333,-0.68C0.336,-0.687 0.338,-0.693 0.341,-0.696C0.343,-0.699 0.347,-0.7 0.353,-0.7L0.447,-0.7L0.447,-0.02C0.447,-0.013 0.445,-0.009 0.442,-0.006C0.439,-0.003 0.429,-0.002 0.413,-0.001C0.398,-0 0.371,-0 0.332,-0Z" style="fill-rule:nonzero;"/>
                </g>
                <g transform="matrix(126.077,0,0,199.519,500.894,668.523)">
                    <path d="M0.03,-0L0.03,-0.651C0.03,-0.668 0.032,-0.679 0.035,-0.686C0.038,-0.693 0.048,-0.697 0.064,-0.698C0.08,-0.699 0.107,-0.7 0.144,-0.7L0.144,-0.02C0.144,-0.013 0.142,-0.009 0.139,-0.006C0.136,-0.003 0.126,-0.002 0.111,-0.001C0.095,-0 0.068,-0 0.03,-0Z" style="fill-rule:nonzero;"/>
                </g>
                <g transform="matrix(126.077,0,0,199.519,522.831,668.523)">
                    <path d="M0.03,-0L0.03,-0.672C0.03,-0.681 0.032,-0.688 0.035,-0.692C0.038,-0.696 0.048,-0.698 0.064,-0.699C0.079,-0.7 0.105,-0.7 0.142,-0.7L0.142,-0.105L0.283,-0.105L0.283,-0.02C0.283,-0.012 0.281,-0.007 0.278,-0.004C0.274,-0.001 0.269,-0 0.263,-0L0.03,-0Z" style="fill-rule:nonzero;"/>
                </g>
                <g transform="matrix(126.077,0,0,199.519,736.91,668.523)">
                    <path d="M0.318,0.002C0.305,0.002 0.292,0.002 0.279,0.001C0.266,0 0.252,-0 0.238,-0.001C0.238,-0.032 0.237,-0.062 0.235,-0.091C0.234,-0.12 0.231,-0.148 0.227,-0.175C0.222,-0.202 0.216,-0.226 0.206,-0.249C0.198,-0.271 0.186,-0.29 0.172,-0.306C0.165,-0.315 0.156,-0.322 0.147,-0.327C0.137,-0.332 0.127,-0.334 0.118,-0.335L0.118,-0.352L0.251,-0.693C0.264,-0.696 0.277,-0.699 0.29,-0.7C0.303,-0.701 0.314,-0.701 0.323,-0.701C0.362,-0.701 0.378,-0.692 0.371,-0.673L0.257,-0.401C0.294,-0.367 0.321,-0.317 0.339,-0.252C0.356,-0.187 0.365,-0.11 0.365,-0.021C0.365,-0.012 0.362,-0.006 0.357,-0.003C0.351,0 0.338,0.002 0.318,0.002ZM0.028,-0L0.028,-0.68C0.028,-0.687 0.03,-0.691 0.033,-0.694C0.036,-0.697 0.046,-0.698 0.062,-0.699C0.077,-0.7 0.104,-0.7 0.142,-0.7L0.142,-0.02C0.142,-0.013 0.141,-0.009 0.138,-0.006C0.135,-0.003 0.125,-0.002 0.109,-0.001C0.093,-0 0.066,-0 0.028,-0Z" style="fill-rule:nonzero;"/>
                </g>
                <g transform="matrix(126.077,0,0,199.519,785.827,668.523)">
                    <path d="M0.209,0.01C0.17,0.01 0.138,0.005 0.115,-0.006C0.091,-0.017 0.073,-0.031 0.061,-0.05C0.048,-0.068 0.04,-0.089 0.036,-0.114C0.032,-0.138 0.03,-0.164 0.03,-0.192L0.03,-0.679C0.03,-0.686 0.032,-0.691 0.035,-0.694C0.038,-0.697 0.048,-0.698 0.064,-0.699C0.08,-0.7 0.107,-0.7 0.146,-0.7L0.146,-0.188C0.146,-0.172 0.147,-0.158 0.149,-0.146C0.15,-0.134 0.153,-0.124 0.158,-0.116C0.163,-0.108 0.169,-0.102 0.178,-0.099C0.186,-0.095 0.196,-0.093 0.209,-0.093C0.22,-0.093 0.231,-0.094 0.242,-0.097C0.252,-0.099 0.26,-0.102 0.267,-0.105L0.267,-0.679C0.267,-0.686 0.269,-0.691 0.272,-0.694C0.275,-0.697 0.285,-0.698 0.301,-0.699C0.316,-0.7 0.343,-0.7 0.381,-0.7L0.381,-0.028C0.369,-0.02 0.348,-0.012 0.318,-0.003C0.288,0.006 0.252,0.01 0.209,0.01Z" style="fill-rule:nonzero;"/>
                </g>
                <g transform="matrix(126.077,0,0,199.519,837.645,668.523)">
                    <path d="M0.063,-0.27C0.052,-0.27 0.045,-0.272 0.043,-0.276C0.041,-0.28 0.04,-0.287 0.04,-0.298L0.04,-0.68C0.04,-0.68 0.04,-0.683 0.041,-0.69C0.042,-0.697 0.047,-0.7 0.058,-0.7L0.144,-0.7C0.186,-0.7 0.222,-0.694 0.251,-0.683C0.28,-0.671 0.302,-0.65 0.317,-0.621C0.332,-0.591 0.339,-0.549 0.339,-0.494C0.339,-0.449 0.334,-0.411 0.323,-0.383C0.312,-0.354 0.297,-0.331 0.279,-0.315C0.26,-0.298 0.24,-0.287 0.218,-0.28C0.195,-0.273 0.172,-0.27 0.149,-0.27L0.063,-0.27ZM0.03,-0L0.03,-0.68C0.03,-0.687 0.031,-0.693 0.034,-0.696C0.036,-0.699 0.041,-0.7 0.05,-0.7L0.122,-0.7C0.132,-0.7 0.138,-0.697 0.14,-0.69C0.141,-0.683 0.142,-0.68 0.142,-0.68L0.142,-0.02C0.142,-0.013 0.14,-0.009 0.137,-0.006C0.134,-0.003 0.124,-0.002 0.109,-0.001C0.094,-0 0.067,-0 0.03,-0ZM0.142,-0.373L0.162,-0.373C0.173,-0.373 0.182,-0.377 0.189,-0.384C0.196,-0.391 0.202,-0.404 0.206,-0.423C0.211,-0.442 0.213,-0.471 0.213,-0.508C0.213,-0.529 0.212,-0.547 0.209,-0.561C0.205,-0.575 0.201,-0.586 0.195,-0.593C0.188,-0.6 0.18,-0.603 0.169,-0.603L0.142,-0.603L0.142,-0.373Z" style="fill-rule:nonzero;"/>
                </g>
                <g transform="matrix(126.077,0,0,199.519,881.646,668.523)">
                    <path d="M0.03,-0L0.03,-0.651C0.03,-0.668 0.032,-0.679 0.035,-0.686C0.038,-0.693 0.048,-0.697 0.064,-0.698C0.08,-0.699 0.107,-0.7 0.144,-0.7L0.144,-0.02C0.144,-0.013 0.142,-0.009 0.139,-0.006C0.136,-0.003 0.126,-0.002 0.111,-0.001C0.095,-0 0.068,-0 0.03,-0Z" style="fill-rule:nonzero;"/>
                </g>
                <g transform="matrix(126.077,0,0,199.519,903.583,668.523)">
                    <path d="M0.03,-0L0.03,-0.68C0.03,-0.68 0.031,-0.683 0.033,-0.69C0.035,-0.697 0.041,-0.7 0.05,-0.7L0.29,-0.7C0.29,-0.67 0.29,-0.648 0.289,-0.634C0.288,-0.62 0.287,-0.611 0.284,-0.607C0.281,-0.602 0.277,-0.6 0.27,-0.6L0.142,-0.6L0.142,-0.1L0.283,-0.1C0.283,-0.069 0.283,-0.046 0.282,-0.032C0.281,-0.018 0.28,-0.009 0.277,-0.006C0.274,-0.002 0.27,-0 0.263,-0L0.03,-0ZM0.038,-0.328L0.038,-0.43L0.263,-0.43C0.263,-0.388 0.262,-0.361 0.261,-0.347C0.259,-0.335 0.253,-0.328 0.244,-0.328L0.038,-0.328Z" style="fill-rule:nonzero;"/>
                </g>
                <g transform="matrix(126.077,0,0,199.519,941.406,668.523)">
                    <path d="M0.293,-0L0.187,-0.268C0.181,-0.284 0.175,-0.302 0.169,-0.323C0.162,-0.344 0.156,-0.365 0.151,-0.388C0.145,-0.411 0.14,-0.433 0.135,-0.454C0.13,-0.475 0.126,-0.495 0.123,-0.512C0.119,-0.529 0.116,-0.543 0.114,-0.554C0.112,-0.564 0.111,-0.569 0.111,-0.569L0.045,-0.635L0.05,-0.7L0.139,-0.7L0.243,-0.437C0.25,-0.42 0.256,-0.4 0.263,-0.379C0.27,-0.357 0.276,-0.335 0.281,-0.313C0.287,-0.29 0.292,-0.269 0.297,-0.248C0.302,-0.227 0.306,-0.209 0.309,-0.192C0.312,-0.175 0.315,-0.162 0.317,-0.153C0.319,-0.143 0.32,-0.138 0.32,-0.138L0.388,-0.065L0.38,-0L0.293,-0ZM0.03,-0L0.03,-0.68C0.03,-0.693 0.037,-0.7 0.05,-0.7L0.142,-0.68L0.125,-0.511C0.127,-0.497 0.129,-0.483 0.13,-0.468C0.131,-0.453 0.133,-0.439 0.134,-0.424C0.135,-0.408 0.137,-0.394 0.138,-0.38C0.139,-0.365 0.139,-0.351 0.14,-0.337C0.141,-0.323 0.141,-0.31 0.141,-0.297C0.142,-0.283 0.142,-0.271 0.142,-0.26L0.142,-0.02C0.142,-0.013 0.14,-0.009 0.137,-0.006C0.134,-0.003 0.124,-0.002 0.109,-0.001C0.094,-0 0.067,-0 0.03,-0ZM0.38,-0L0.288,-0.02L0.303,-0.212C0.301,-0.227 0.299,-0.242 0.298,-0.257C0.297,-0.271 0.296,-0.285 0.295,-0.298C0.294,-0.311 0.293,-0.324 0.292,-0.337C0.291,-0.35 0.29,-0.362 0.29,-0.375C0.289,-0.387 0.289,-0.399 0.289,-0.411C0.288,-0.423 0.288,-0.435 0.288,-0.447L0.288,-0.68C0.288,-0.687 0.29,-0.691 0.293,-0.694C0.296,-0.697 0.306,-0.698 0.322,-0.699C0.337,-0.7 0.363,-0.7 0.4,-0.7L0.4,-0.02C0.4,-0.007 0.393,-0 0.38,-0Z" style="fill-rule:nonzero;"/>
                </g>
                <g transform="matrix(126.077,0,0,199.519,995.619,668.523)">
                    <path d="M0.008,0.2C0.008,0.169 0.009,0.146 0.01,0.131C0.011,0.116 0.013,0.107 0.018,0.102C0.023,0.097 0.03,0.095 0.04,0.095L0.149,0.095L0.149,-0.717L0.008,-0.717C0.008,-0.752 0.009,-0.776 0.01,-0.791C0.011,-0.806 0.014,-0.815 0.019,-0.818C0.023,-0.821 0.03,-0.822 0.04,-0.822L0.263,-0.822L0.263,0.168C0.263,0.177 0.262,0.183 0.26,0.188C0.257,0.193 0.25,0.196 0.238,0.197C0.226,0.199 0.206,0.2 0.177,0.2L0.008,0.2Z" style="fill-rule:nonzero;"/>
                </g>
            </g>
            <g>
                <g transform="matrix(0.80263,0,0,0.80263,392.642,-170.732)">
                    <circle cx="334.124" cy="1193.22" r="70.935"/>
                </g>
                <g transform="matrix(125,0,0,125,639.82,828.925)">
                    <path d="M0.147,0.01C0.102,0.01 0.069,0.003 0.048,-0.011C0.027,-0.024 0.016,-0.04 0.016,-0.057C0.016,-0.068 0.018,-0.082 0.022,-0.097C0.026,-0.112 0.032,-0.125 0.041,-0.138C0.052,-0.129 0.065,-0.121 0.082,-0.115C0.099,-0.108 0.116,-0.105 0.134,-0.105C0.161,-0.105 0.18,-0.112 0.191,-0.126C0.202,-0.14 0.207,-0.159 0.207,-0.182C0.207,-0.199 0.204,-0.216 0.198,-0.231C0.191,-0.246 0.179,-0.265 0.162,-0.288L0.071,-0.41C0.048,-0.441 0.033,-0.467 0.026,-0.49C0.019,-0.513 0.015,-0.535 0.015,-0.557C0.015,-0.602 0.03,-0.639 0.06,-0.668C0.09,-0.696 0.134,-0.71 0.193,-0.71C0.244,-0.71 0.279,-0.705 0.299,-0.695C0.319,-0.685 0.329,-0.671 0.329,-0.654C0.329,-0.645 0.327,-0.634 0.323,-0.624C0.319,-0.613 0.312,-0.602 0.303,-0.591C0.298,-0.595 0.287,-0.599 0.27,-0.604C0.253,-0.609 0.235,-0.611 0.216,-0.611C0.191,-0.611 0.172,-0.607 0.158,-0.599C0.144,-0.59 0.137,-0.577 0.137,-0.56C0.137,-0.545 0.14,-0.531 0.146,-0.518C0.151,-0.504 0.16,-0.489 0.173,-0.471L0.269,-0.348C0.293,-0.317 0.309,-0.29 0.317,-0.265C0.325,-0.24 0.329,-0.214 0.329,-0.185C0.329,-0.152 0.324,-0.12 0.314,-0.091C0.303,-0.061 0.285,-0.037 0.259,-0.018C0.233,0.001 0.196,0.01 0.147,0.01Z" style="fill:white;fill-rule:nonzero;"/>
                </g>
            </g>
        </g>
    </g>
</svg>
